
<svg width="234px" height="250px" viewBox="405 2506 234 250" version="1.1" xmlns="http://www.w3.org/2000/svg" xmlns:xlink="http://www.w3.org/1999/xlink">
    <!-- Generator: Sketch 42 (36781) - http://www.bohemiancoding.com/sketch -->
    <desc>Created with Sketch.</desc>
    <defs></defs>
    <g id="icon" stroke="none" stroke-width="1" fill="none" fill-rule="evenodd" transform="translate(405.000000, 2506.000000)">
        <g id="Capa_1" fill-rule="nonzero" fill="#FFFFFF">
            <g id="Group">
                <g transform="translate(0.000000, 78.125000)" id="Shape">
                    <path d="M20.5764,20.6640625 L208.0728,20.6640625 C212.745,20.6640625 216.5358,16.875 216.5358,12.203125 C216.5358,7.5390625 212.7528,3.7421875 208.0728,3.7421875 L20.5764,3.7421875 C15.8886,3.7421875 12.1056,7.5390625 12.1056,12.203125 C12.1056,16.875 15.8964,20.6640625 20.5764,20.6640625 Z"></path>
                    <path d="M218.673,47.5625 L204.516,47.5625 L204.516,25.4765625 L24.1332,25.4765625 L24.1332,47.5625 L9.9762,47.5625 C5.0154,47.5625 0.9828,51.609375 0.9828,56.59375 C0.9828,61.59375 5.0154,65.6484375 9.9762,65.6484375 L24.1332,65.6484375 L24.1332,144.296875 C24.1332,144.296875 22.1832,166.492188 40.9812,166.492188 L187.6602,166.492188 C206.466,166.492188 204.5082,144.296875 204.5082,144.296875 L204.5082,65.65625 L218.6652,65.65625 C223.626,65.65625 227.6508,61.59375 227.6508,56.6015625 C227.6586,51.609375 223.6338,47.5625 218.673,47.5625 Z"></path>
                </g>
                <path d="M93.3816,66.609375 C90.9402,56.3515625 88.4442,42.4765625 95.8308,34.9921875 C102.765,25.453125 99.0444,9.828125 93.3816,0 C100.386,34.1875 89.9262,29.8203125 87.8592,40.578125 C85.9248,48.9609375 88.9044,59.3046875 93.3816,66.609375 Z" id="Shape"></path>
                <path d="M114.6756,66.609375 C105.6822,29.828125 123.9966,41.4765625 120.471,16.7265625 C119.5038,10.78125 117.585,5.109375 114.6756,0 C116.376,8.9296875 119.4258,24.671875 113.5992,32.1640625 C105.1362,41.6484375 108.6462,56.8515625 114.6756,66.609375 Z" id="Shape"></path>
                <path d="M134.8542,66.609375 C125.931,29.3046875 144.3624,41.3203125 140.634,16.7265625 C139.698,10.78125 137.787,5.109375 134.8542,0 C136.6638,9.078125 139.5654,24.7421875 133.7856,32.1640625 C125.073,41.8125 129.1758,57.390625 134.8542,66.609375 Z" id="Shape"></path>
            </g>
        </g>
    </g>
</svg>