
<svg width="214px" height="251px" viewBox="405 1425 214 251" version="1.1" xmlns="http://www.w3.org/2000/svg" xmlns:xlink="http://www.w3.org/1999/xlink">
    <!-- Generator: Sketch 42 (36781) - http://www.bohemiancoding.com/sketch -->
    <desc>Created with Sketch.</desc>
    <defs></defs>
    <g id="1486236872_Towel_2" stroke="none" stroke-width="1" fill="none" fill-rule="evenodd" transform="translate(405.000000, 1425.000000)">
        <g id="Layer_1" fill-rule="nonzero" fill="#FFFFFF">
            <path d="M206.835712,121.601656 L177.273254,105.741594 L112.105463,73.637125 L112.105463,56.8593438 C112.105463,52.5295938 116.703981,50.6353281 116.703981,50.6353281 C125.854173,46.4310781 132.232762,37.2774219 132.232762,26.5393281 C132.232762,11.8832813 120.412463,0 105.812755,0 C94.1290841,0 84.3269803,7.6555 80.87614,18.2210312 C80.852718,18.3190781 79.6738111,22.9782656 82.941179,22.9782656 L88.0432697,22.9782656 C88.8786541,22.90375 90.4049873,22.4488125 91.5838943,20.1898125 C93.8206945,14.4089687 99.3248628,10.3184531 105.824466,10.3184531 C114.26419,10.3184531 121.107316,17.1935 121.107316,25.6804375 C121.107316,32.2691875 116.934297,37.7794219 111.12174,39.940375 C111.168584,39.9874375 110.762602,40.1011719 110.2278,40.2815781 C106.855033,41.4934375 100.089981,44.7446719 100.089981,52.4119375 L100.089981,53.6355625 L100.089981,73.3900469 L39.5246123,103.510047 L4.21205498,122.452703 C2.63107049,123.472391 0.046843985,125.880422 0,130.947484 L0,134.700719 C0,137.963719 2.62326316,140.599219 5.87111278,140.599219 L41.7653163,140.599219 L41.7653163,244.505375 C41.7653163,247.760531 44.3924831,250.403875 47.636429,250.403875 L165.04307,250.403875 C168.287016,250.403875 170.914183,247.760531 170.914183,244.505375 L170.914183,140.599219 L206.792772,140.599219 C210.036718,140.599219 212.663884,137.963719 212.663884,134.700719 L212.663884,130.763156 C212.890297,125.252922 206.905978,121.640875 206.835712,121.601656 Z M159.250031,214.04025 L52.4847815,214.04025 L52.4847815,198.925344 L159.250031,198.925344 L159.250031,214.04025 Z M188.383086,128.523766 L183.097523,128.523766 L170.910279,128.523766 L170.910279,126.554984 C170.910279,123.295906 168.283112,120.660406 165.039166,120.660406 L47.6325254,120.660406 C44.3885794,120.660406 41.7614126,123.295906 41.7614126,126.554984 L41.7614126,128.523766 L26.4317185,128.523766 L24.1051339,128.523766 L23.7967444,128.523766 C19.7213177,128.523766 23.7147674,125.782375 23.7850334,125.735312 C25.8617834,124.562672 28.3835512,123.17825 30.9482594,121.887953 L106.046975,84.1673594 L105.804947,84.4536562 L105.804947,84.4497344 L106.000131,84.5517031 L180.525007,121.887953 L181.77418,122.637031 L185.841799,124.884266 C185.865221,124.888187 185.876932,124.899953 185.900354,124.911719 L188.379182,126.284375 C188.383086,126.284375 192.118893,128.523766 188.383086,128.523766 Z" id="Shape"></path>
        </g>
    </g>
</svg>