
<svg width="246px" height="250px" viewBox="405 3665 246 250" version="1.1" xmlns="http://www.w3.org/2000/svg" xmlns:xlink="http://www.w3.org/1999/xlink">
    <!-- Generator: Sketch 42 (36781) - http://www.bohemiancoding.com/sketch -->
    <desc>Created with Sketch.</desc>
    <defs></defs>
    <g id="toilet-" stroke="none" stroke-width="1" fill="none" fill-rule="evenodd" transform="translate(405.000000, 3665.000000)">
        <g id="Capa_1" fill-rule="nonzero" fill="#FFFFFF">
            <g id="Group">
                <polygon id="Shape" points="167.805876 0 149.717743 0 149.717743 129.975673 0.465189873 129.975673 0.465189873 144.928571 167.805876 144.928571"></polygon>
                <path d="M176.850717,31.7085921 L176.850717,140.400104 L196.073914,140.404244 L196.073914,162.395445 C196.073914,166.888199 192.424241,170.541925 187.938259,170.541925 L167.40788,170.541925 C167.650812,169.847308 167.764008,169.463251 167.762458,169.463251 C169.493998,163.159938 170.529304,156.517081 170.529304,149.454969 L0.464672996,149.454969 C0.464672996,225.031056 58.5358755,249.650104 58.5358755,249.650104 L109.430749,249.650104 L109.430749,230.694099 L114.302321,221.32764 L114.383987,221.328157 C115.911878,220.873188 117.476466,220.467909 118.950084,219.906832 C139.422574,212.102484 151.994072,198.10766 159.242764,186.835404 L187.938776,186.835404 C201.396719,186.835404 212.345738,175.871118 212.345738,162.394928 L212.345738,140.407867 L231.141994,140.412008 L244.702795,31.7122153 L176.850717,31.7085921 Z" id="Shape"></path>
                <rect id="Rectangle-path" x="176.850717" y="13.5869565" width="67.8386392" height="13.5828157"></rect>
            </g>
        </g>
    </g>
</svg>